<?xml version="1.0" standalone="no"?>
<!DOCTYPE svg PUBLIC "-//W3C//DTD SVG 20010904//EN"
 "http://www.w3.org/TR/2001/REC-SVG-20010904/DTD/svg10.dtd">
<svg version="1.0" xmlns="http://www.w3.org/2000/svg"
 width="1024.000000pt" height="1024.000000pt" viewBox="0 0 1024.000000 1024.000000"
 preserveAspectRatio="xMidYMid meet">
<metadata>
Created by potrace 1.14, written by Peter Selinger 2001-2017
</metadata>
<g transform="translate(0.000000,1024.000000) scale(0.100000,-0.100000)"
fill="#000000" stroke="none">
<path d="M5000 8364 c-781 -71 -1462 -510 -1843 -1189 -152 -271 -254 -591
-287 -902 -21 -192 1 -663 31 -663 11 0 370 98 374 102 1 2 -4 41 -13 88 -11
61 -15 156 -16 335 -1 280 11 368 79 604 126 437 393 831 755 1113 407 316
961 482 1463 440 157 -14 344 -49 464 -87 42 -13 79 -23 80 -21 4 4 -144 60
-227 85 -102 32 -228 60 -341 76 -101 15 -429 27 -519 19z"/>
<path d="M5099 8105 c-858 -139 -1511 -782 -1661 -1635 -37 -214 -25 -710 17
-710 7 0 132 32 277 71 144 39 288 77 318 85 30 8 179 48 330 89 151 40 309
83 350 93 66 18 462 124 1105 297 1067 287 1017 276 1265 276 161 0 284 -17
405 -56 291 -95 487 -303 567 -599 30 -112 30 -297 -1 -411 -78 -292 -304
-550 -613 -700 -110 -54 -100 -58 25 -9 121 46 290 142 349 196 7 7 38 36 68
63 193 176 327 415 375 667 21 109 21 308 0 416 -81 420 -343 742 -714 875
-189 68 -276 81 -536 82 -144 0 -262 -5 -315 -13 -47 -8 -395 -80 -775 -162
-379 -82 -766 -165 -860 -185 -93 -20 -231 -49 -305 -65 -126 -28 -368 -80
-538 -117 -40 -8 -75 -13 -78 -11 -5 6 39 114 83 203 20 38 69 122 111 185
101 154 310 365 460 464 195 129 393 213 616 263 137 30 429 42 571 24 330
-44 641 -181 913 -404 95 -78 94 -75 -20 59 -119 140 -285 284 -437 378 -229
142 -449 227 -721 282 -117 23 -510 29 -631 9z"/>
<path d="M2855 7198 c-218 -72 -382 -168 -530 -310 -188 -179 -313 -406 -360
-652 -21 -107 -21 -308 0 -414 86 -443 352 -757 755 -892 152 -50 294 -70 503
-70 208 0 308 13 576 70 383 81 1210 260 1321 284 269 60 963 206 966 203 6
-5 -34 -103 -72 -180 -301 -601 -882 -966 -1544 -969 -85 -1 -193 4 -240 11
-178 25 -395 94 -563 177 -92 47 -277 173 -361 247 l-70 62 49 -64 c168 -221
432 -434 700 -566 568 -277 1225 -268 1785 26 672 353 1089 1076 1057 1834 -7
157 -26 305 -39 305 -5 0 -124 -31 -266 -70 -384 -104 -375 -101 -837 -224
-236 -63 -479 -128 -540 -144 -60 -16 -213 -57 -340 -91 -126 -35 -252 -68
-280 -76 -27 -7 -270 -72 -540 -144 -502 -134 -603 -155 -785 -167 -264 -16
-556 63 -738 201 -133 100 -246 276 -294 455 -31 116 -30 299 0 413 26 95 85
223 143 308 62 93 212 238 311 303 86 56 222 126 245 126 6 0 15 5 18 10 3 6
5 10 3 9 -2 0 -16 -5 -33 -11z"/>
<path d="M7145 6399 c-99 -28 -180 -51 -182 -52 -1 -2 5 -41 13 -87 21 -122
29 -432 15 -560 -49 -424 -207 -807 -469 -1138 -73 -92 -238 -257 -332 -333
-498 -396 -1145 -551 -1765 -424 -102 21 -164 38 -290 80 -11 3 -9 0 6 -9 50
-29 324 -114 449 -140 183 -37 338 -50 540 -43 359 12 653 87 974 249 660 332
1123 968 1251 1718 25 145 31 505 11 655 -9 65 -16 123 -16 127 0 12 -13 10
-205 -43z"/>
<path d="M3357 2903 c-4 -3 -7 -154 -7 -335 l0 -328 130 0 130 0 0 45 0 44
-72 3 -73 3 -3 288 -2 287 -48 0 c-27 0 -52 -3 -55 -7z"/>
<path d="M3728 2893 c-14 -9 -31 -27 -37 -40 -7 -15 -11 -120 -11 -284 l0
-261 34 -34 c32 -32 38 -34 104 -34 88 0 117 11 142 52 19 31 20 51 20 283 0
232 -1 252 -20 283 -11 18 -32 37 -46 42 -42 16 -155 12 -186 -7z m140 -315
l-3 -243 -37 -3 -38 -3 0 245 0 246 40 0 40 0 -2 -242z"/>
<path d="M4040 2575 l0 -335 55 0 54 0 3 143 c3 116 6 142 18 142 10 0 24 -40
49 -142 l35 -143 53 0 c40 0 53 4 53 15 0 8 -16 77 -36 152 -31 117 -34 138
-22 147 30 22 38 56 38 165 0 175 -16 191 -189 191 l-111 0 0 -335z m190 144
l0 -100 -37 3 -38 3 -3 84 c-2 46 -1 90 2 98 3 7 20 13 41 13 l35 0 0 -101z"/>
<path d="M4410 2575 l0 -335 125 0 125 0 0 45 0 45 -70 0 -70 0 0 100 0 100
58 0 57 0 0 45 0 45 -57 0 -58 0 0 100 0 100 69 0 69 0 4 34 c2 19 2 39 0 45
-2 7 -46 11 -128 11 l-124 0 0 -335z"/>
<path d="M4740 2575 l0 -335 50 0 c32 0 50 4 50 12 0 73 8 280 11 283 3 2 22
-59 43 -136 22 -76 42 -139 45 -139 3 0 24 64 46 143 l40 142 3 -152 3 -153
54 0 55 0 0 336 0 335 -47 -3 -46 -3 -50 -175 c-27 -96 -52 -178 -56 -182 -3
-4 -24 54 -45 130 -22 75 -45 158 -53 185 l-14 47 -44 0 -45 0 0 -335z"/>
<path d="M5215 2893 c2 -10 4 -161 4 -335 l1 -318 50 0 50 0 0 335 0 335 -54
0 c-46 0 -54 -3 -51 -17z"/>
<path d="M5390 2575 l0 -335 55 0 55 0 0 145 0 145 56 0 c67 0 109 22 124 63
13 39 13 215 0 254 -18 50 -54 63 -179 63 l-111 0 0 -335z m190 145 l0 -100
-40 0 -40 0 0 100 0 100 40 0 40 0 0 -100z"/>
<path d="M5789 2881 c-28 -29 -29 -32 -29 -128 l0 -98 90 -90 90 -90 0 -73 0
-73 -37 3 c-38 3 -38 3 -41 51 l-3 47 -50 0 -49 0 0 -64 c0 -54 4 -70 24 -93
23 -26 31 -28 110 -32 l86 -3 35 35 c35 35 35 35 35 127 l0 93 -96 97 -95 97
3 64 3 64 38 3 37 3 0 -50 0 -51 55 0 55 0 0 55 c0 105 -35 135 -155 135 -71
0 -79 -2 -106 -29z"/>
<path d="M6120 2608 l0 -303 24 -30 c22 -27 29 -30 100 -33 47 -3 88 1 107 8
59 25 59 26 59 358 l0 303 -52 -3 -53 -3 -2 -270 c-2 -148 -3 -278 -3 -287 0
-14 -8 -18 -35 -18 l-35 0 0 290 0 290 -55 0 -55 0 0 -302z"/>
<path d="M6480 2575 l0 -335 55 0 55 0 1 158 1 157 24 -80 c14 -44 35 -114 47
-155 l23 -75 38 140 c22 77 43 147 47 155 5 8 9 -54 9 -142 l0 -158 55 0 55 0
-2 333 -3 332 -46 3 -45 3 -48 -168 c-27 -92 -52 -177 -56 -188 -8 -22 -15 -3
-81 233 l-34 122 -47 0 -48 0 0 -335z"/>
</g>
</svg>
